<svg width="35" height="35" viewBox="0 0 35 35" fill="none" xmlns="http://www.w3.org/2000/svg">
<path d="M19.6261 0.0730009C17.2592 0.450019 15.0017 1.91285 13.5104 4.02415C10.1106 8.8349 11.1504 15.8022 15.7679 19.1803C17.2044 20.2284 18.7162 20.7788 20.5632 20.9221C21.2199 20.9673 21.2542 20.9673 21.432 20.7939L21.6236 20.6129L21.2131 15.7947C20.9874 13.1404 20.8095 10.9613 20.8163 10.9613C20.8232 10.9537 22.937 11.1649 25.5091 11.4288L30.1882 11.9189L30.3318 11.753C30.4686 11.6098 30.4755 11.5193 30.4755 10.3354C30.4755 9.3024 30.4413 8.93292 30.3113 8.29199C29.894 6.18823 29.0115 4.45395 27.6024 2.93834C26.2 1.43026 24.483 0.465098 22.5813 0.110702C21.8903 -0.0174837 20.3033 -0.0401049 19.6261 0.0730009ZM23.0669 1.14373C24.7292 1.62632 25.9332 2.38035 27.1303 3.68483C28.6969 5.3965 29.5656 7.56058 29.6683 9.99612C29.7093 10.901 29.7025 10.9236 29.5656 10.9236C29.4904 10.9236 27.4313 10.72 24.9892 10.4712C22.5539 10.2148 20.4469 10.0263 20.317 10.0338C19.8792 10.0715 19.8792 9.95087 20.3238 15.0708C20.5427 17.6194 20.7206 19.7835 20.7274 19.874C20.7274 20.0248 20.7001 20.0323 20.3375 20.0022C15.6174 19.5573 12.0602 15.0708 12.3407 9.90563C12.4706 7.51534 13.3326 5.40404 14.8717 3.715C15.8979 2.59148 16.9855 1.84499 18.3126 1.35486C19.3319 0.977843 19.8655 0.8949 21.2063 0.925061C22.2187 0.947682 22.506 0.977843 23.0669 1.14373Z" fill="black"/>
<path d="M19.6261 0.0730009C17.2592 0.450019 15.0017 1.91285 13.5104 4.02415C10.1106 8.8349 11.1504 15.8022 15.7679 19.1803C17.2044 20.2284 18.7162 20.7788 20.5632 20.9221C21.2199 20.9673 21.2542 20.9673 21.432 20.7939L21.6236 20.6129L21.2131 15.7947C20.9874 13.1404 20.8095 10.9613 20.8163 10.9613C20.8232 10.9537 22.937 11.1649 25.5091 11.4288L30.1882 11.9189L30.3318 11.753C30.4686 11.6098 30.4755 11.5193 30.4755 10.3354C30.4755 9.3024 30.4413 8.93292 30.3113 8.29199C29.894 6.18823 29.0115 4.45395 27.6024 2.93834C26.2 1.43026 24.483 0.465098 22.5813 0.110702C21.8903 -0.0174837 20.3033 -0.0401049 19.6261 0.0730009ZM23.0669 1.14373C24.7292 1.62632 25.9332 2.38035 27.1303 3.68483C28.6969 5.3965 29.5656 7.56058 29.6683 9.99612C29.7093 10.901 29.7025 10.9236 29.5656 10.9236C29.4904 10.9236 27.4313 10.72 24.9892 10.4712C22.5539 10.2148 20.4469 10.0263 20.317 10.0338C19.8792 10.0715 19.8792 9.95087 20.3238 15.0708C20.5427 17.6194 20.7206 19.7835 20.7274 19.874C20.7274 20.0248 20.7001 20.0323 20.3375 20.0022C15.6174 19.5573 12.0602 15.0708 12.3407 9.90563C12.4706 7.51534 13.3326 5.40404 14.8717 3.715C15.8979 2.59148 16.9855 1.84499 18.3126 1.35486C19.3319 0.977843 19.8655 0.8949 21.2063 0.925061C22.2187 0.947682 22.506 0.977843 23.0669 1.14373Z" fill="white"/>
<path d="M18.6889 3.4587C17.7517 3.73015 16.7598 4.43895 16.7598 4.83105C16.7598 5.13266 16.9513 5.23823 17.7517 5.37395C19.3524 5.65295 20.9258 6.40698 22.0956 7.44755L22.2666 7.59836L21.9861 7.92259C21.8288 8.10356 21.6646 8.32223 21.6236 8.41272C21.5346 8.60877 21.6236 8.91792 21.7877 8.99333C21.8493 9.01595 22.7796 9.03857 23.8468 9.03857C25.7006 9.03857 25.7964 9.03103 25.9264 8.88776C26.0564 8.74449 26.0632 8.63893 26.0632 6.56533C26.0632 4.55205 26.0564 4.37862 25.9401 4.26552C25.7075 4.03177 25.4681 4.10717 25.0713 4.52189L24.7019 4.90645L23.8947 4.45403C22.9985 3.95636 22.1298 3.60197 21.3294 3.42854C20.5838 3.26265 19.3251 3.27773 18.6889 3.4587ZM21.2063 4.32584C22.2529 4.59729 23.2653 5.04972 24.223 5.69065C24.6403 5.96964 24.9003 6.01488 25.0371 5.83391C25.085 5.77359 25.1465 5.72081 25.1807 5.72081C25.2149 5.72081 25.2423 6.26372 25.2423 6.92727V8.13372H24.0999H22.9643L23.108 7.9603C23.3543 7.67376 23.2995 7.44755 22.9028 7.03283C22.0614 6.15815 20.8164 5.37395 19.5713 4.93661C19.1746 4.79334 18.7436 4.65762 18.6205 4.62746C18.0664 4.49927 18.9899 4.22782 20.0091 4.22028C20.4538 4.22028 20.9395 4.25798 21.2063 4.32584Z" fill="black"/>
<path d="M18.6889 3.4587C17.7517 3.73015 16.7598 4.43895 16.7598 4.83105C16.7598 5.13266 16.9513 5.23823 17.7517 5.37395C19.3524 5.65295 20.9258 6.40698 22.0956 7.44755L22.2666 7.59836L21.9861 7.92259C21.8288 8.10356 21.6646 8.32223 21.6236 8.41272C21.5346 8.60877 21.6236 8.91792 21.7877 8.99333C21.8493 9.01595 22.7796 9.03857 23.8468 9.03857C25.7006 9.03857 25.7964 9.03103 25.9264 8.88776C26.0564 8.74449 26.0632 8.63893 26.0632 6.56533C26.0632 4.55205 26.0564 4.37862 25.9401 4.26552C25.7075 4.03177 25.4681 4.10717 25.0713 4.52189L24.7019 4.90645L23.8947 4.45403C22.9985 3.95636 22.1298 3.60197 21.3294 3.42854C20.5838 3.26265 19.3251 3.27773 18.6889 3.4587ZM21.2063 4.32584C22.2529 4.59729 23.2653 5.04972 24.223 5.69065C24.6403 5.96964 24.9003 6.01488 25.0371 5.83391C25.085 5.77359 25.1465 5.72081 25.1807 5.72081C25.2149 5.72081 25.2423 6.26372 25.2423 6.92727V8.13372H24.0999H22.9643L23.108 7.9603C23.3543 7.67376 23.2995 7.44755 22.9028 7.03283C22.0614 6.15815 20.8164 5.37395 19.5713 4.93661C19.1746 4.79334 18.7436 4.65762 18.6205 4.62746C18.0664 4.49927 18.9899 4.22782 20.0091 4.22028C20.4538 4.22028 20.9395 4.25798 21.2063 4.32584Z" fill="white"/>
<path d="M16.192 9.77751C16.1236 9.85291 16.0757 9.9811 16.0757 10.064C16.0757 10.1696 15.9868 10.245 15.7268 10.343C15.3574 10.4938 14.8922 10.901 14.7417 11.2253C14.5912 11.542 14.557 11.9341 14.6391 12.2884C14.7486 12.7333 15.248 13.2762 15.7268 13.4497L16.0757 13.5779V14.362V15.1538L15.8773 15.0331C15.6174 14.8899 15.3916 14.5656 15.3916 14.347C15.3916 14.0906 15.0975 13.8945 14.858 13.985C14.2082 14.2339 14.8033 15.5911 15.72 15.9455C15.9936 16.0586 16.0757 16.119 16.0757 16.2471C16.0757 16.4583 16.2809 16.6543 16.5067 16.6543C16.6914 16.6543 16.8966 16.413 16.8966 16.2019C16.8966 16.134 17.0266 16.036 17.2249 15.9606C18.2032 15.5685 18.6273 14.4827 18.1348 13.6156C17.9158 13.2461 17.567 12.952 17.1565 12.8087L16.8966 12.7183V11.9341V11.1423L17.0881 11.2554C17.3344 11.3987 17.4849 11.5947 17.5396 11.8662C17.6422 12.3186 17.8885 12.4619 18.1826 12.2357C18.2921 12.1527 18.3331 12.0472 18.3331 11.8209C18.3331 11.2102 17.868 10.5919 17.2249 10.3355C17.0266 10.2601 16.8966 10.1621 16.8966 10.0942C16.8966 9.70965 16.4246 9.49852 16.192 9.77751ZM16.0757 11.8662C16.0757 12.4694 16.062 12.5825 15.9662 12.5825C15.8089 12.5825 15.3916 12.0999 15.3916 11.919C15.3916 11.6701 15.7747 11.2328 16.062 11.1574C16.0688 11.1499 16.0757 11.4741 16.0757 11.8662ZM17.3139 13.9322C17.6627 14.3243 17.5601 14.7768 17.0539 15.0633L16.8966 15.1538V14.4299C16.8966 13.6156 16.9581 13.5401 17.3139 13.9322Z" fill="black"/>
<path d="M16.192 9.77751C16.1236 9.85291 16.0757 9.9811 16.0757 10.064C16.0757 10.1696 15.9868 10.245 15.7268 10.343C15.3574 10.4938 14.8922 10.901 14.7417 11.2253C14.5912 11.542 14.557 11.9341 14.6391 12.2884C14.7486 12.7333 15.248 13.2762 15.7268 13.4497L16.0757 13.5779V14.362V15.1538L15.8773 15.0331C15.6174 14.8899 15.3916 14.5656 15.3916 14.347C15.3916 14.0906 15.0975 13.8945 14.858 13.985C14.2082 14.2339 14.8033 15.5911 15.72 15.9455C15.9936 16.0586 16.0757 16.119 16.0757 16.2471C16.0757 16.4583 16.2809 16.6543 16.5067 16.6543C16.6914 16.6543 16.8966 16.413 16.8966 16.2019C16.8966 16.134 17.0266 16.036 17.2249 15.9606C18.2032 15.5685 18.6273 14.4827 18.1348 13.6156C17.9158 13.2461 17.567 12.952 17.1565 12.8087L16.8966 12.7183V11.9341V11.1423L17.0881 11.2554C17.3344 11.3987 17.4849 11.5947 17.5396 11.8662C17.6422 12.3186 17.8885 12.4619 18.1826 12.2357C18.2921 12.1527 18.3331 12.0472 18.3331 11.8209C18.3331 11.2102 17.868 10.5919 17.2249 10.3355C17.0266 10.2601 16.8966 10.1621 16.8966 10.0942C16.8966 9.70965 16.4246 9.49852 16.192 9.77751ZM16.0757 11.8662C16.0757 12.4694 16.062 12.5825 15.9662 12.5825C15.8089 12.5825 15.3916 12.0999 15.3916 11.919C15.3916 11.6701 15.7747 11.2328 16.062 11.1574C16.0688 11.1499 16.0757 11.4741 16.0757 11.8662ZM17.3139 13.9322C17.6627 14.3243 17.5601 14.7768 17.0539 15.0633L16.8966 15.1538V14.4299C16.8966 13.6156 16.9581 13.5401 17.3139 13.9322Z" fill="white"/>
<path d="M21.9245 12.1603C21.8219 12.2432 21.7946 12.3488 21.8014 12.5901C21.8493 13.6759 22.7249 23.4783 22.7865 23.5613C22.9301 23.7498 23.1148 23.7498 23.9152 23.5538C26.2205 22.9807 27.917 22.008 29.3536 20.432C30.195 19.497 30.7833 18.5771 31.2963 17.3857C31.8162 16.1717 32.3498 14.2188 32.3567 13.5175C32.3567 13.0802 32.3088 13.0651 29.8598 12.8163C28.6216 12.6881 26.4394 12.4694 25.0166 12.3186C22.075 12.017 22.0956 12.017 21.9245 12.1603ZM27.1372 13.4497C29.3673 13.6759 31.2553 13.8644 31.3374 13.8644C31.4674 13.8644 31.481 13.8945 31.4332 14.1358C31.3442 14.6561 31.0501 15.7118 30.7765 16.4658C29.764 19.2633 27.8076 21.2615 25.1055 22.2568C24.353 22.5358 23.5595 22.7394 23.4979 22.6791C23.4842 22.6564 23.2995 20.6205 23.0875 18.1549C22.8822 15.6892 22.6975 13.5175 22.6702 13.329L22.636 12.9897L22.8617 13.0123C22.9849 13.0274 24.9071 13.2235 27.1372 13.4497Z" fill="black"/>
<path d="M21.9245 12.1603C21.8219 12.2432 21.7946 12.3488 21.8014 12.5901C21.8493 13.6759 22.7249 23.4783 22.7865 23.5613C22.9301 23.7498 23.1148 23.7498 23.9152 23.5538C26.2205 22.9807 27.917 22.008 29.3536 20.432C30.195 19.497 30.7833 18.5771 31.2963 17.3857C31.8162 16.1717 32.3498 14.2188 32.3567 13.5175C32.3567 13.0802 32.3088 13.0651 29.8598 12.8163C28.6216 12.6881 26.4394 12.4694 25.0166 12.3186C22.075 12.017 22.0956 12.017 21.9245 12.1603ZM27.1372 13.4497C29.3673 13.6759 31.2553 13.8644 31.3374 13.8644C31.4674 13.8644 31.481 13.8945 31.4332 14.1358C31.3442 14.6561 31.0501 15.7118 30.7765 16.4658C29.764 19.2633 27.8076 21.2615 25.1055 22.2568C24.353 22.5358 23.5595 22.7394 23.4979 22.6791C23.4842 22.6564 23.2995 20.6205 23.0875 18.1549C22.8822 15.6892 22.6975 13.5175 22.6702 13.329L22.636 12.9897L22.8617 13.0123C22.9849 13.0274 24.9071 13.2235 27.1372 13.4497Z" fill="white"/>
<path d="M27.315 14.7842C27.2397 14.8823 26.6856 15.8927 26.0905 17.0313C24.9002 19.3085 24.8249 19.5347 25.1943 19.7307C25.3585 19.8212 25.4064 19.8137 25.5432 19.7232C25.7484 19.5724 27.9785 15.3045 27.9785 15.0557C27.9785 14.837 27.787 14.6184 27.5886 14.6184C27.5134 14.6184 27.3902 14.6938 27.315 14.7842Z" fill="black"/>
<path d="M27.315 14.7842C27.2397 14.8823 26.6856 15.8927 26.0905 17.0313C24.9002 19.3085 24.8249 19.5347 25.1943 19.7307C25.3585 19.8212 25.4064 19.8137 25.5432 19.7232C25.7484 19.5724 27.9785 15.3045 27.9785 15.0557C27.9785 14.837 27.787 14.6184 27.5886 14.6184C27.5134 14.6184 27.3902 14.6938 27.315 14.7842Z" fill="white"/>
<path d="M24.3461 15.1688C23.7988 15.576 23.6483 16.2395 23.9767 16.8428C24.3803 17.6044 25.4269 17.6044 25.8511 16.8503C26.0358 16.5261 26.0426 15.953 25.8647 15.5986C25.598 15.0331 24.8181 14.8144 24.3461 15.1688ZM25.1396 16.2018C25.1396 16.4431 25.1191 16.4658 24.9207 16.4884C24.7292 16.511 24.695 16.4808 24.6539 16.315C24.5992 16.0661 24.736 15.8852 24.9618 15.9153C25.1123 15.9379 25.1396 15.9756 25.1396 16.2018Z" fill="black"/>
<path d="M24.3461 15.1688C23.7988 15.576 23.6483 16.2395 23.9767 16.8428C24.3803 17.6044 25.4269 17.6044 25.8511 16.8503C26.0358 16.5261 26.0426 15.953 25.8647 15.5986C25.598 15.0331 24.8181 14.8144 24.3461 15.1688ZM25.1396 16.2018C25.1396 16.4431 25.1191 16.4658 24.9207 16.4884C24.7292 16.511 24.695 16.4808 24.6539 16.315C24.5992 16.0661 24.736 15.8852 24.9618 15.9153C25.1123 15.9379 25.1396 15.9756 25.1396 16.2018Z" fill="white"/>
<path d="M27.5681 17.1218C26.7815 17.5592 26.7267 18.6525 27.4518 19.2482C27.7597 19.497 28.3548 19.4669 28.6832 19.1954C28.82 19.0823 28.9842 18.8787 29.0457 18.7505C29.1894 18.4414 29.1483 17.7778 28.9636 17.4988C28.7995 17.2575 28.2933 16.9559 28.047 16.9559C27.9512 16.9559 27.7323 17.0313 27.5681 17.1218ZM28.2112 17.9588C28.4711 18.1624 28.1975 18.6751 27.9307 18.4942C27.7597 18.3735 27.7323 18.0794 27.8828 17.9588C27.9512 17.906 28.0265 17.8608 28.047 17.8608C28.0675 17.8608 28.1428 17.906 28.2112 17.9588Z" fill="black"/>
<path d="M27.5681 17.1218C26.7815 17.5592 26.7267 18.6525 27.4518 19.2482C27.7597 19.497 28.3548 19.4669 28.6832 19.1954C28.82 19.0823 28.9842 18.8787 29.0457 18.7505C29.1894 18.4414 29.1483 17.7778 28.9636 17.4988C28.7995 17.2575 28.2933 16.9559 28.047 16.9559C27.9512 16.9559 27.7323 17.0313 27.5681 17.1218ZM28.2112 17.9588C28.4711 18.1624 28.1975 18.6751 27.9307 18.4942C27.7597 18.3735 27.7323 18.0794 27.8828 17.9588C27.9512 17.906 28.0265 17.8608 28.047 17.8608C28.0675 17.8608 28.1428 17.906 28.2112 17.9588Z" fill="white"/>
<path d="M2.85259 17.9739C1.92225 18.2302 1.06716 18.4866 0.957703 18.5394C0.841411 18.5922 0.615666 18.7958 0.458329 18.9918C0.150496 19.3688 0 19.7685 0 20.2058C0 20.3491 0.725118 23.2747 1.60757 26.7207C3.3588 33.5296 3.31092 33.3864 3.92658 33.8011C4.49436 34.1932 4.82272 34.1706 6.81337 33.6126C7.75056 33.3562 8.57144 33.0923 8.63985 33.0244C8.73562 32.9339 8.76299 32.8208 8.74246 32.4966C8.72194 32.097 8.72878 32.0819 8.92716 32.0216C9.04346 31.9839 9.41286 31.9537 9.74805 31.9462C10.3295 31.9386 10.5074 31.9839 12.758 32.67C15.5627 33.5296 18.7505 34.4269 20.0092 34.7135C20.5017 34.8266 21.22 34.9321 21.6167 34.9548L22.3418 35L22.9165 34.6908C23.238 34.525 25.858 33.0998 28.7448 31.5239C34.4363 28.4097 34.4431 28.4097 34.7988 27.5954C35.0588 27.0223 35.0656 26.1552 34.8262 25.6047C34.2995 24.4209 33.0408 23.7196 31.83 23.9458C31.4537 24.0212 30.797 24.353 28.1154 25.8083C26.33 26.7885 24.8387 27.5878 24.8114 27.5878C24.784 27.5878 24.7635 27.4219 24.7635 27.2108C24.7635 26.3964 24.2641 25.4916 23.5595 25.0241C23.1285 24.7376 23.2311 24.7677 17.9364 23.2898C13.7772 22.1286 13.6746 22.0758 11.6635 19.9721C10.3979 18.645 9.88487 18.2679 8.89296 17.9286C8.18152 17.6873 6.91599 17.6873 5.86935 17.9286C5.12371 18.0945 4.99374 18.0945 4.99374 17.8909C4.99374 17.7552 4.74747 17.4837 4.63802 17.4913C4.59014 17.4913 3.78977 17.7099 2.85259 17.9739ZM4.43964 19.0446C4.51489 19.3311 5.27421 22.2719 6.12246 25.5896C6.97071 28.9074 7.70951 31.7878 7.76424 31.9989C7.81896 32.2025 7.85317 32.376 7.84633 32.3835C7.80528 32.4287 6.4645 32.7756 6.44397 32.753C6.42345 32.7379 6.17035 31.7803 5.86935 30.6266C5.56836 29.4729 5.29473 28.4851 5.25369 28.4399C5.15108 28.3042 4.82272 28.3192 4.69275 28.4625C4.63118 28.5228 4.58329 28.6586 4.58329 28.7566C4.58329 28.8621 4.81588 29.8424 5.09635 30.9433C5.37682 32.0442 5.6094 32.9566 5.6094 32.9792C5.6094 33.0395 5.09635 33.1677 4.82272 33.1677C4.52173 33.1677 4.15233 32.9566 4.04288 32.7228C4.00183 32.6474 3.25619 29.8198 2.39426 26.4417C1.21081 21.8496 0.820889 20.2435 0.848251 20.0475C0.9235 19.5272 1.13556 19.399 2.67473 18.9541C3.44089 18.7354 4.12496 18.5469 4.18653 18.5469C4.27546 18.5394 4.33703 18.6676 4.43964 19.0446ZM8.75614 18.8335C9.46758 19.0823 9.99432 19.4819 11.0683 20.5979C13.3189 22.943 13.3258 22.943 18.6684 24.4284C23.238 25.7027 23.3201 25.7329 23.6895 26.3964C24.0794 27.0977 23.9836 27.8668 23.4432 28.3796C23.1422 28.6661 22.636 28.8697 22.2392 28.8697C22.1093 28.8697 20.358 28.4097 18.34 27.8442C16.1578 27.241 14.6118 26.8413 14.516 26.8715C14.3177 26.9243 14.2082 27.2183 14.2971 27.4747C14.3724 27.6934 14.1056 27.6104 18.5042 28.832C21.6715 29.7217 21.9588 29.7821 22.4034 29.7519C22.937 29.7067 23.3543 29.5483 23.7784 29.2392C24.2094 28.9149 31.529 24.9562 31.8642 24.8582C32.5072 24.6848 33.3486 24.9713 33.7932 25.5368C34.3268 26.2004 34.3337 26.9997 33.8069 27.618C33.6838 27.7613 31.6931 28.8923 27.9102 30.9584L22.1982 34.0876L21.5825 34.0499C20.4743 33.9745 17.7722 33.2733 13.1342 31.8481C11.8345 31.4485 10.5621 31.0941 10.2953 31.0564C9.85066 30.9961 9.17343 31.0413 8.64669 31.1695C8.46883 31.2147 8.42095 31.1997 8.38674 31.0866C8.36622 31.0036 7.66847 28.2966 6.84074 25.0618C6.01301 21.827 5.32209 19.1426 5.30157 19.0898C5.27421 18.9993 5.95144 18.8033 6.70392 18.6827C7.28539 18.5922 8.25677 18.6676 8.75614 18.8335Z" fill="black"/>
<path d="M2.85259 17.9739C1.92225 18.2302 1.06716 18.4866 0.957703 18.5394C0.841411 18.5922 0.615666 18.7958 0.458329 18.9918C0.150496 19.3688 0 19.7685 0 20.2058C0 20.3491 0.725118 23.2747 1.60757 26.7207C3.3588 33.5296 3.31092 33.3864 3.92658 33.8011C4.49436 34.1932 4.82272 34.1706 6.81337 33.6126C7.75056 33.3562 8.57144 33.0923 8.63985 33.0244C8.73562 32.9339 8.76299 32.8208 8.74246 32.4966C8.72194 32.097 8.72878 32.0819 8.92716 32.0216C9.04346 31.9839 9.41286 31.9537 9.74805 31.9462C10.3295 31.9386 10.5074 31.9839 12.758 32.67C15.5627 33.5296 18.7505 34.4269 20.0092 34.7135C20.5017 34.8266 21.22 34.9321 21.6167 34.9548L22.3418 35L22.9165 34.6908C23.238 34.525 25.858 33.0998 28.7448 31.5239C34.4363 28.4097 34.4431 28.4097 34.7988 27.5954C35.0588 27.0223 35.0656 26.1552 34.8262 25.6047C34.2995 24.4209 33.0408 23.7196 31.83 23.9458C31.4537 24.0212 30.797 24.353 28.1154 25.8083C26.33 26.7885 24.8387 27.5878 24.8114 27.5878C24.784 27.5878 24.7635 27.4219 24.7635 27.2108C24.7635 26.3964 24.2641 25.4916 23.5595 25.0241C23.1285 24.7376 23.2311 24.7677 17.9364 23.2898C13.7772 22.1286 13.6746 22.0758 11.6635 19.9721C10.3979 18.645 9.88487 18.2679 8.89296 17.9286C8.18152 17.6873 6.91599 17.6873 5.86935 17.9286C5.12371 18.0945 4.99374 18.0945 4.99374 17.8909C4.99374 17.7552 4.74747 17.4837 4.63802 17.4913C4.59014 17.4913 3.78977 17.7099 2.85259 17.9739ZM4.43964 19.0446C4.51489 19.3311 5.27421 22.2719 6.12246 25.5896C6.97071 28.9074 7.70951 31.7878 7.76424 31.9989C7.81896 32.2025 7.85317 32.376 7.84633 32.3835C7.80528 32.4287 6.4645 32.7756 6.44397 32.753C6.42345 32.7379 6.17035 31.7803 5.86935 30.6266C5.56836 29.4729 5.29473 28.4851 5.25369 28.4399C5.15108 28.3042 4.82272 28.3192 4.69275 28.4625C4.63118 28.5228 4.58329 28.6586 4.58329 28.7566C4.58329 28.8621 4.81588 29.8424 5.09635 30.9433C5.37682 32.0442 5.6094 32.9566 5.6094 32.9792C5.6094 33.0395 5.09635 33.1677 4.82272 33.1677C4.52173 33.1677 4.15233 32.9566 4.04288 32.7228C4.00183 32.6474 3.25619 29.8198 2.39426 26.4417C1.21081 21.8496 0.820889 20.2435 0.848251 20.0475C0.9235 19.5272 1.13556 19.399 2.67473 18.9541C3.44089 18.7354 4.12496 18.5469 4.18653 18.5469C4.27546 18.5394 4.33703 18.6676 4.43964 19.0446ZM8.75614 18.8335C9.46758 19.0823 9.99432 19.4819 11.0683 20.5979C13.3189 22.943 13.3258 22.943 18.6684 24.4284C23.238 25.7027 23.3201 25.7329 23.6895 26.3964C24.0794 27.0977 23.9836 27.8668 23.4432 28.3796C23.1422 28.6661 22.636 28.8697 22.2392 28.8697C22.1093 28.8697 20.358 28.4097 18.34 27.8442C16.1578 27.241 14.6118 26.8413 14.516 26.8715C14.3177 26.9243 14.2082 27.2183 14.2971 27.4747C14.3724 27.6934 14.1056 27.6104 18.5042 28.832C21.6715 29.7217 21.9588 29.7821 22.4034 29.7519C22.937 29.7067 23.3543 29.5483 23.7784 29.2392C24.2094 28.9149 31.529 24.9562 31.8642 24.8582C32.5072 24.6848 33.3486 24.9713 33.7932 25.5368C34.3268 26.2004 34.3337 26.9997 33.8069 27.618C33.6838 27.7613 31.6931 28.8923 27.9102 30.9584L22.1982 34.0876L21.5825 34.0499C20.4743 33.9745 17.7722 33.2733 13.1342 31.8481C11.8345 31.4485 10.5621 31.0941 10.2953 31.0564C9.85066 30.9961 9.17343 31.0413 8.64669 31.1695C8.46883 31.2147 8.42095 31.1997 8.38674 31.0866C8.36622 31.0036 7.66847 28.2966 6.84074 25.0618C6.01301 21.827 5.32209 19.1426 5.30157 19.0898C5.27421 18.9993 5.95144 18.8033 6.70392 18.6827C7.28539 18.5922 8.25677 18.6676 8.75614 18.8335Z" fill="white"/>
</svg>
