<svg width="28" height="28" viewBox="0 0 28 28" fill="none" xmlns="http://www.w3.org/2000/svg">
<path d="M1.792 0H26.208L27.5688 4.0796C27.8222 4.8398 28.1162 5.9444 27.797 7.0952C27.5708 7.91289 27.1615 8.66837 26.6 9.3044V25.2H28V28H4.02295e-06V25.2H1.4V9.3044C0.496386 8.28214 -0.001633 6.96438 4.02295e-06 5.6V5.3732L1.792 0ZM4.2 11.0236V25.2H8.4V15.4H19.6V25.2H23.8V11.0236C22.7988 11.2813 21.7459 11.2571 20.7576 10.9537C19.7693 10.6503 18.8841 10.0795 18.2 9.3044C17.675 9.90092 17.0288 10.3786 16.3046 10.7055C15.5803 11.0323 14.7946 11.2009 14 11.2C13.2054 11.2009 12.4197 11.0323 11.6954 10.7055C10.9712 10.3786 10.325 9.90092 9.8 9.3044C9.11724 10.0813 8.23218 10.6534 7.24344 10.957C6.25469 11.2605 5.20109 11.2836 4.2 11.0236ZM11.2 5.6C11.2 6.34261 11.495 7.0548 12.0201 7.5799C12.5452 8.105 13.2574 8.4 14 8.4C14.7426 8.4 15.4548 8.105 15.9799 7.5799C16.505 7.0548 16.8 6.34261 16.8 5.6V2.8H11.2V5.6ZM8.4 2.8H3.808L2.807 5.8044C2.8616 6.5506 3.206 7.2156 3.7338 7.6874C4.13672 8.04762 4.63528 8.28353 5.16932 8.36666C5.70335 8.4498 6.25003 8.3766 6.74338 8.1559C7.23673 7.9352 7.65566 7.57644 7.94962 7.12291C8.24358 6.66938 8.4 6.14046 8.4 5.6V2.8ZM19.6 2.8V5.6C19.5989 6.27792 19.8438 6.93321 20.2892 7.44426C20.7347 7.9553 21.3504 8.28738 22.0221 8.37887C22.6938 8.47036 23.3759 8.31504 23.9418 7.94174C24.5077 7.56844 24.9189 7.00252 25.0992 6.349C25.1818 6.0508 25.1356 5.6322 24.913 4.9644L24.1906 2.8H19.6ZM16.8 25.2V18.2H11.2V25.2H16.8Z" fill="black"/>
<path d="M1.792 0H26.208L27.5688 4.0796C27.8222 4.8398 28.1162 5.9444 27.797 7.0952C27.5708 7.91289 27.1615 8.66837 26.6 9.3044V25.2H28V28H4.02295e-06V25.2H1.4V9.3044C0.496386 8.28214 -0.001633 6.96438 4.02295e-06 5.6V5.3732L1.792 0ZM4.2 11.0236V25.2H8.4V15.4H19.6V25.2H23.8V11.0236C22.7988 11.2813 21.7459 11.2571 20.7576 10.9537C19.7693 10.6503 18.8841 10.0795 18.2 9.3044C17.675 9.90092 17.0288 10.3786 16.3046 10.7055C15.5803 11.0323 14.7946 11.2009 14 11.2C13.2054 11.2009 12.4197 11.0323 11.6954 10.7055C10.9712 10.3786 10.325 9.90092 9.8 9.3044C9.11724 10.0813 8.23218 10.6534 7.24344 10.957C6.25469 11.2605 5.20109 11.2836 4.2 11.0236ZM11.2 5.6C11.2 6.34261 11.495 7.0548 12.0201 7.5799C12.5452 8.105 13.2574 8.4 14 8.4C14.7426 8.4 15.4548 8.105 15.9799 7.5799C16.505 7.0548 16.8 6.34261 16.8 5.6V2.8H11.2V5.6ZM8.4 2.8H3.808L2.807 5.8044C2.8616 6.5506 3.206 7.2156 3.7338 7.6874C4.13672 8.04762 4.63528 8.28353 5.16932 8.36666C5.70335 8.4498 6.25003 8.3766 6.74338 8.1559C7.23673 7.9352 7.65566 7.57644 7.94962 7.12291C8.24358 6.66938 8.4 6.14046 8.4 5.6V2.8ZM19.6 2.8V5.6C19.5989 6.27792 19.8438 6.93321 20.2892 7.44426C20.7347 7.9553 21.3504 8.28738 22.0221 8.37887C22.6938 8.47036 23.3759 8.31504 23.9418 7.94174C24.5077 7.56844 24.9189 7.00252 25.0992 6.349C25.1818 6.0508 25.1356 5.6322 24.913 4.9644L24.1906 2.8H19.6ZM16.8 25.2V18.2H11.2V25.2H16.8Z" fill="#FFFAFA"/>
</svg>
