<svg width="27" height="26" viewBox="0 0 27 26" fill="none" xmlns="http://www.w3.org/2000/svg">
<path d="M3.76667 7.08334V22.6667H23.6V7.08334H19.35V18.4167L13.6833 15.5833L8.01667 18.4167V7.08334H3.76667ZM3.76667 25.5C2.9875 25.5 2.32025 25.2223 1.76492 24.667C1.20959 24.1117 0.932392 23.4449 0.933337 22.6667V4.99376C0.933337 4.6632 0.986698 4.34445 1.09342 4.03751C1.20014 3.73056 1.35928 3.44723 1.57084 3.18751L3.34167 1.02709C3.60139 0.696535 3.92581 0.44248 4.31492 0.264924C4.70403 0.0873687 5.11156 -0.000936949 5.5375 7.49559e-06H21.8292C22.2542 7.49559e-06 22.6617 0.0887852 23.0518 0.266341C23.4418 0.443896 23.7662 0.69748 24.025 1.02709L25.7958 3.18751C26.0083 3.44723 26.1679 3.73056 26.2747 4.03751C26.3814 4.34445 26.4343 4.6632 26.4333 4.99376V22.6667C26.4333 23.4458 26.1557 24.1131 25.6003 24.6684C25.045 25.2238 24.3782 25.501 23.6 25.5H3.76667ZM4.33334 4.25001H23.0333L21.8292 2.83334H5.5375L4.33334 4.25001ZM10.85 7.08334V13.8125L13.6833 12.3958L16.5167 13.8125V7.08334H10.85Z" fill="#F8F8F8"/>
</svg>
