<svg width="20" height="30" viewBox="0 0 20 30" fill="none" xmlns="http://www.w3.org/2000/svg">
<path d="M0 0V30H20V7.60846L19.72 7.24731L13.72 0.324231L13.406 0.00115376L0 0ZM2 2.30769H12V9.23077H18V27.6923H2V2.30769ZM14 3.96692L16.563 6.92308H14V3.96577V3.96692ZM5 11.5385V13.8462H15V11.5385H5ZM5 16.1538V18.4615H15V16.1538H5ZM5 20.7692V23.0769H15V20.7692H5Z" fill="black"/>
<path d="M0 0V30H20V7.60846L19.72 7.24731L13.72 0.324231L13.406 0.00115376L0 0ZM2 2.30769H12V9.23077H18V27.6923H2V2.30769ZM14 3.96692L16.563 6.92308H14V3.96577V3.96692ZM5 11.5385V13.8462H15V11.5385H5ZM5 16.1538V18.4615H15V16.1538H5ZM5 20.7692V23.0769H15V20.7692H5Z" fill="#FFFEFE"/>
</svg>
